<?xml version="1.0" encoding="UTF-8"?>
<svg version="1.1" xmlns="http://www.w3.org/2000/svg" width="95" height="92">
<path d="M0 0 C31.35 0 62.7 0 95 0 C95 30.36 95 60.72 95 92 C63.65 92 32.3 92 0 92 C0 61.64 0 31.28 0 0 Z " fill="#3863E3" transform="translate(0,0)"/>
<path d="M0 0 C31.35 0 62.7 0 95 0 C95 30.36 95 60.72 95 92 C63.65 92 32.3 92 0 92 C0 61.64 0 31.28 0 0 Z M8.625 10.5 C8.16351562 11.0671875 7.70203125 11.634375 7.2265625 12.21875 C4.61840982 16.00638574 3.74685873 18.74632679 3.70947266 23.37597656 C3.69671295 24.45099426 3.68395325 25.52601196 3.67080688 26.63360596 C3.66858124 27.79092224 3.66635559 28.94823853 3.6640625 30.140625 C3.6574057 31.33677429 3.6507489 32.53292358 3.64389038 33.76531982 C3.63376407 36.29714419 3.62907335 38.82899525 3.62939453 41.36083984 C3.62503223 45.22148072 3.58873984 49.08096845 3.55078125 52.94140625 C3.54491087 55.40364193 3.54094296 57.86588304 3.5390625 60.328125 C3.52469147 61.47734436 3.51032043 62.62656372 3.49551392 63.81060791 C3.53929482 71.54915176 4.54476159 76.99594296 9.74609375 83.0234375 C10.58333984 83.69246094 10.58333984 83.69246094 11.4375 84.375 C11.99308594 84.83648437 12.54867188 85.29796875 13.12109375 85.7734375 C17.10475897 88.37400066 20.67355828 89.2515531 25.39770508 89.29052734 C26.4526265 89.30328705 27.50754791 89.31604675 28.59443665 89.32919312 C30.28985847 89.33253159 30.28985847 89.33253159 32.01953125 89.3359375 C33.19206955 89.3425943 34.36460785 89.3492511 35.57267761 89.35610962 C38.05144687 89.36622608 40.53024332 89.37092695 43.0090332 89.37060547 C46.78838353 89.37497214 50.56655979 89.41128692 54.34570312 89.44921875 C56.75780852 89.45508847 59.16991945 89.45905682 61.58203125 89.4609375 C63.26834404 89.48249405 63.26834404 89.48249405 64.98872375 89.50448608 C72.17269342 89.46295494 78.05804029 88.66162905 83.48200989 83.62338257 C89.87460493 76.42411601 90.45769357 70.11936944 90.43359375 60.8828125 C90.4388356 59.71168915 90.44407745 58.5405658 90.44947815 57.33395386 C90.45589034 54.86115307 90.4545718 52.38832174 90.44604492 49.91552734 C90.43754498 46.14495104 90.46629436 42.37589516 90.49804688 38.60546875 C90.49965935 36.19791712 90.49908048 33.79036282 90.49609375 31.3828125 C90.50732773 30.26174103 90.51856171 29.14066956 90.53013611 27.98562622 C90.4625957 20.34562065 89.38786386 14.92598094 84.25390625 8.9765625 C83.41666016 8.30753906 83.41666016 8.30753906 82.5625 7.625 C82.00691406 7.16351562 81.45132813 6.70203125 80.87890625 6.2265625 C76.89524103 3.62599934 73.32644172 2.7484469 68.60229492 2.70947266 C67.5473735 2.69671295 66.49245209 2.68395325 65.40556335 2.67080688 C63.71014153 2.66746841 63.71014153 2.66746841 61.98046875 2.6640625 C60.80793045 2.6574057 59.63539215 2.6507489 58.42732239 2.64389038 C55.94855313 2.63377392 53.46975668 2.62907305 50.9909668 2.62939453 C47.21161647 2.62502786 43.43344021 2.58871308 39.65429688 2.55078125 C37.24219148 2.54491153 34.83008055 2.54094318 32.41796875 2.5390625 C31.29376022 2.52469147 30.1695517 2.51032043 29.01127625 2.49551392 C20.9326434 2.54221718 13.93348441 3.74932618 8.625 10.5 Z " fill="#F8F9FE" transform="translate(0,0)"/>
<path d="M0 0 C1.11084961 0.4940332 1.11084961 0.4940332 2.24414062 0.99804688 C4.06061562 1.80667123 5.87433931 2.62147116 7.6875 3.4375 C8.08002565 15.28595954 8.23694526 24.98394632 0.421875 34.63671875 C-3.49165937 38.70009566 -7.11131171 41.28027226 -12.8125 41.6875 C-19.38708789 39.3394329 -25.03450338 34.01124385 -28.15844727 27.73901367 C-30.41739753 22.40964556 -30.68204724 17.66965399 -30.5 11.9375 C-30.48646484 11.11507812 -30.47292969 10.29265625 -30.45898438 9.4453125 C-30.42405016 7.44241779 -30.37026057 5.43986644 -30.3125 3.4375 C-26.9908662 1.74660794 -23.65596115 0.08479007 -20.3125 -1.5625 C-19.63703125 -1.90410156 -18.9615625 -2.24570312 -18.265625 -2.59765625 C-11.38757269 -5.86929618 -6.45959091 -2.91518625 0 0 Z " fill="#F6F8FD" transform="translate(58.3125,27.5625)"/>
<path d="M0 0 C0 5.94 0 11.88 0 18 C-4.95 18 -9.9 18 -15 18 C-15 14.04 -15 10.08 -15 6 C-13.06629769 4.99267601 -11.12789694 3.99436712 -9.1875 3 C-8.10855469 2.443125 -7.02960937 1.88625 -5.91796875 1.3125 C-3 0 -3 0 0 0 Z " fill="#4069E4" transform="translate(47,28)"/>
<path d="M0 0 C4.62 0 9.24 0 14 0 C13.44094886 6.98813922 11.14308621 11.26507789 5.9375 15.875 C3 18 3 18 0 18 C0 12.06 0 6.12 0 0 Z " fill="#3D66E4" transform="translate(47,46)"/>
</svg>
